<mxfile host="app.diagrams.net" modified="2023-07-09T16:03:03.813Z" agent="Mozilla/5.0 (Windows NT 10.0; Win64; x64) AppleWebKit/537.36 (KHTML, like Gecko) Chrome/114.0.0.0 Safari/537.36" etag="Kc9Q3WutRjJcXJheJj2W" version="21.6.1" type="github">
  <diagram name="Page-1" id="fmRlHji0forrvQp5yMxz">
    <mxGraphModel dx="328" dy="262" grid="1" gridSize="10" guides="1" tooltips="1" connect="1" arrows="1" fold="1" page="1" pageScale="1" pageWidth="827" pageHeight="1169" math="0" shadow="0">
      <root>
        <mxCell id="0" />
        <mxCell id="1" parent="0" />
        <mxCell id="_a7Appp3z4muIdz7x5uz-7" style="edgeStyle=orthogonalEdgeStyle;rounded=0;orthogonalLoop=1;jettySize=auto;html=1;exitX=1;exitY=0.25;exitDx=0;exitDy=0;entryX=0;entryY=0.25;entryDx=0;entryDy=0;" edge="1" parent="1" source="_a7Appp3z4muIdz7x5uz-1" target="_a7Appp3z4muIdz7x5uz-4">
          <mxGeometry relative="1" as="geometry" />
        </mxCell>
        <mxCell id="_a7Appp3z4muIdz7x5uz-1" value="Idle" style="whiteSpace=wrap;html=1;aspect=fixed;" vertex="1" parent="1">
          <mxGeometry x="360" y="360" width="30" height="30" as="geometry" />
        </mxCell>
        <mxCell id="_a7Appp3z4muIdz7x5uz-6" style="edgeStyle=orthogonalEdgeStyle;rounded=0;orthogonalLoop=1;jettySize=auto;html=1;exitX=0;exitY=0.75;exitDx=0;exitDy=0;entryX=1;entryY=0.75;entryDx=0;entryDy=0;" edge="1" parent="1" source="_a7Appp3z4muIdz7x5uz-4" target="_a7Appp3z4muIdz7x5uz-1">
          <mxGeometry relative="1" as="geometry" />
        </mxCell>
        <mxCell id="_a7Appp3z4muIdz7x5uz-4" value="Run" style="whiteSpace=wrap;html=1;aspect=fixed;" vertex="1" parent="1">
          <mxGeometry x="440" y="360" width="30" height="30" as="geometry" />
        </mxCell>
      </root>
    </mxGraphModel>
  </diagram>
</mxfile>
